<svg xmlns="http://www.w3.org/2000/svg" width="124" height="124" viewBox="0 0 124 124"><title>loading</title><g style="opacity:0.9"><path d="M64,125A61,61,0,0,1,63,3V13a51,51,0,1,0,52,52h10A61,61,0,0,1,64,125Z" transform="translate(-2 -2)" style="fill:#a4ddea"/><path d="M62,4v8a52,52,0,1,0,54,54h8A60,60,0,1,1,62,4m2-2a62,62,0,1,0,62,62H114A50,50,0,1,1,64,14V2Z" transform="translate(-2 -2)" style="fill:#5fd4ff"/></g><path d="M65,3a61.1,61.1,0,0,1,60,60H115A51.1,51.1,0,0,0,65,13V3M64,2V14a50,50,0,0,1,50,50h12A62.1,62.1,0,0,0,64,2Z" transform="translate(-2 -2)" style="fill:#333"/><path d="M114,64h12A62.1,62.1,0,0,0,64,2V14A50,50,0,0,1,114,64Z" transform="translate(-2 -2)" style="fill:#3369e2;fill-rule:evenodd"/></svg>